<?xml version="1.0" encoding="UTF-8"?>
<!DOCTYPE svg PUBLIC "-//W3C//DTD SVG 1.1//EN" "http://www.w3.org/Graphics/SVG/1.1/DTD/svg11.dtd">
<svg xmlns="http://www.w3.org/2000/svg" version="1.1" width="447px" height="93px" style="shape-rendering:geometricPrecision; text-rendering:geometricPrecision; image-rendering:optimizeQuality; fill-rule:evenodd; clip-rule:evenodd" xmlns:xlink="http://www.w3.org/1999/xlink">
<g><path style="opacity:0.99" fill="#f3b28f" d="M 47.5,1.5 C 47.5,11.8333 47.5,22.1667 47.5,32.5C 44.6802,32.2475 42.0135,32.7475 39.5,34C 29.2788,42.6502 28.9455,51.6502 38.5,61C 41.2065,62.9076 44.2065,63.741 47.5,63.5C 47.5,73.1667 47.5,82.8333 47.5,92.5C 45.1667,92.5 42.8333,92.5 40.5,92.5C 32.7163,76.216 20.7163,64.0493 4.5,56C 0.32943,52.1457 -0.503903,47.6457 2,42.5C 12.2059,35.967 21.5392,28.3004 30,19.5C 33.7986,13.4025 37.9652,7.56921 42.5,2C 44.1341,1.50649 45.8008,1.33982 47.5,1.5 Z"/></g>
<g><path style="opacity:0.991" fill="#ea4a26" d="M 47.5,1.5 C 49.1992,1.33982 50.8659,1.50649 52.5,2C 57.6336,9.76641 63.1336,17.2664 69,24.5C 76.4633,31.2299 84.4633,37.2299 93,42.5C 95.2358,46.9896 94.7358,51.1562 91.5,55C 74.9508,63.3823 62.6175,75.8823 54.5,92.5C 52.1667,92.5 49.8333,92.5 47.5,92.5C 47.5,82.8333 47.5,73.1667 47.5,63.5C 57.3191,62.681 62.3191,57.3477 62.5,47.5C 61.8742,38.2074 56.8742,33.2074 47.5,32.5C 47.5,22.1667 47.5,11.8333 47.5,1.5 Z"/></g>
<g><path style="opacity:0.872" fill="#fefffe" d="M 384.5,2.5 C 395.231,1.97343 398.564,6.64009 394.5,16.5C 388.86,20.9752 384.027,20.3085 380,14.5C 378.309,9.13112 379.809,5.13112 384.5,2.5 Z"/></g>
<g><path style="opacity:0.906" fill="#fefffe" d="M 137.5,23.5 C 143.075,23.5816 148.409,24.7483 153.5,27C 157.026,29.0261 159.693,31.8595 161.5,35.5C 158.074,38.4098 154.241,40.7432 150,42.5C 143.23,35.6161 136.896,35.9494 131,43.5C 128.179,54.3428 132.345,59.5094 143.5,59C 146.539,57.9686 149.039,56.1353 151,53.5C 155.235,55.0322 159.069,57.1989 162.5,60C 156.56,70.4688 147.56,74.8021 135.5,73C 120.631,68.7739 114.131,58.9405 116,43.5C 118.91,32.0843 126.077,25.4176 137.5,23.5 Z"/></g>
<g><path style="opacity:0.899" fill="#fefffe" d="M 183.5,23.5 C 202.062,24.2891 210.729,33.9558 209.5,52.5C 198.48,52.1679 187.48,52.5012 176.5,53.5C 179.877,60.1014 185.211,62.2681 192.5,60C 194.344,58.8179 196.177,57.6512 198,56.5C 201.232,58.2002 204.399,60.0335 207.5,62C 208.451,62.7175 208.617,63.5509 208,64.5C 199.759,72.8199 189.925,75.3199 178.5,72C 164.367,64.9535 159.534,53.7868 164,38.5C 168.1,30.2171 174.6,25.2171 183.5,23.5 Z M 183.5,35.5 C 188.814,35.3222 192.814,37.4889 195.5,42C 189.167,42.6667 182.833,42.6667 176.5,42C 178.077,38.9197 180.41,36.753 183.5,35.5 Z"/></g>
<g><path style="opacity:0.922" fill="#fefffe" d="M 237.5,23.5 C 240.206,23.5751 242.873,23.9084 245.5,24.5C 245.334,28.8461 245.501,33.1794 246,37.5C 254.108,23.5576 265.108,20.5576 279,28.5C 279.49,27.2068 279.657,25.8734 279.5,24.5C 284.167,24.5 288.833,24.5 293.5,24.5C 293.5,40.5 293.5,56.5 293.5,72.5C 288.833,72.5 284.167,72.5 279.5,72.5C 279.657,71.1266 279.49,69.7932 279,68.5C 267.232,76.1455 256.899,74.4789 248,63.5C 243.561,55.8271 242.728,47.8271 245.5,39.5C 238.879,36.0188 233.379,37.3521 229,43.5C 228.5,53.1609 228.334,62.8276 228.5,72.5C 223.833,72.5 219.167,72.5 214.5,72.5C 214.5,56.5 214.5,40.5 214.5,24.5C 219.167,24.5 223.833,24.5 228.5,24.5C 228.343,25.8734 228.51,27.2068 229,28.5C 231.682,26.415 234.516,24.7483 237.5,23.5 Z M 266.5,37.5 C 278.084,37.5946 282.251,43.2613 279,54.5C 271.902,61.4345 265.236,61.1012 259,53.5C 258.333,50.1667 258.333,46.8333 259,43.5C 261.134,40.8474 263.634,38.8474 266.5,37.5 Z"/></g>
<g><path style="opacity:0.907" fill="#fefffe" d="M 324.5,23.5 C 330.798,23.0691 336.131,25.0691 340.5,29.5C 351.252,21.1497 361.418,21.8164 371,31.5C 372.562,33.9573 373.562,36.624 374,39.5C 374.5,50.495 374.667,61.495 374.5,72.5C 369.5,72.5 364.5,72.5 359.5,72.5C 359.666,62.1613 359.5,51.828 359,41.5C 355.623,37.251 351.457,36.4177 346.5,39C 345.874,39.7504 345.374,40.5838 345,41.5C 344.5,51.828 344.334,62.1613 344.5,72.5C 339.5,72.5 334.5,72.5 329.5,72.5C 329.666,62.1613 329.5,51.828 329,41.5C 324.505,36.2309 319.839,36.2309 315,41.5C 314.5,51.828 314.334,62.1613 314.5,72.5C 309.833,72.5 305.167,72.5 300.5,72.5C 300.5,56.5 300.5,40.5 300.5,24.5C 305.167,24.5 309.833,24.5 314.5,24.5C 314.343,25.8734 314.51,27.2068 315,28.5C 317.907,26.1317 321.074,24.465 324.5,23.5 Z"/></g>
<g><path style="opacity:0.908" fill="#fefffe" d="M 446.5,58.5 C 446.5,59.8333 446.5,61.1667 446.5,62.5C 435.904,74.3615 423.571,76.5282 409.5,69C 396.621,55.9733 396.288,42.6399 408.5,29C 419.167,21.6667 429.833,21.6667 440.5,29C 442.959,31.1079 444.459,33.6079 445,36.5C 441.576,38.9183 437.91,40.9183 434,42.5C 427.267,35.7156 420.933,36.049 415,43.5C 412.359,50.7152 414.526,55.8818 421.5,59C 427.186,60.1042 431.686,58.2709 435,53.5C 438.781,55.3078 442.615,56.9745 446.5,58.5 Z"/></g>
<g><path style="opacity:0.868" fill="#fefffe" d="M 380.5,24.5 C 385.5,24.5 390.5,24.5 395.5,24.5C 395.5,40.5 395.5,56.5 395.5,72.5C 390.5,72.5 385.5,72.5 380.5,72.5C 380.5,56.5 380.5,40.5 380.5,24.5 Z"/></g>
<g><path style="opacity:1" fill="#eb4c28" d="M 47.5,32.5 C 47.5,42.8333 47.5,53.1667 47.5,63.5C 44.2065,63.741 41.2065,62.9076 38.5,61C 28.9455,51.6502 29.2788,42.6502 39.5,34C 42.0135,32.7475 44.6802,32.2475 47.5,32.5 Z"/></g>
<g><path style="opacity:1" fill="#f2b18e" d="M 47.5,32.5 C 56.8742,33.2074 61.8742,38.2074 62.5,47.5C 62.3191,57.3477 57.3191,62.681 47.5,63.5C 47.5,53.1667 47.5,42.8333 47.5,32.5 Z"/></g>
</svg>
