<svg width="1058" height="685" viewBox="0 0 1058 685" fill="none" xmlns="http://www.w3.org/2000/svg">
<path d="M862.782 444.022L689.452 432.98L719.803 379.453L862.782 444.022ZM691.9 431.763L855.221 442.166L720.489 381.34L691.9 431.763Z" fill="#059B9F"/>
<path d="M859.851 444.256L719.086 380.701L842.236 162.353L859.851 444.256ZM721.113 380.093L858.074 441.932L840.927 167.593L721.113 380.093Z" fill="#059B9F"/>
<path d="M952.977 607.081L683.076 454.752L685.399 454.596L859.461 442.384L952.977 607.081ZM687.847 455.797L949.033 603.182L858.526 443.819L687.847 455.797Z" fill="#059B9F"/>
<path d="M684.479 456.031L690.029 431.638H690.715L859.072 442.353V443.725L684.479 456.031ZM691.292 433.104L686.412 454.518L848.643 443.133L691.292 433.104Z" fill="#059B9F"/>
<path d="M5.12866 514.517L133.438 333.475L260.002 449.558L258.755 449.87L5.12866 514.517ZM133.703 335.705L8.62051 512.178L257.071 448.841L133.703 335.705Z" fill="#059B9F"/>
<path d="M590.168 485.648L691.79 430.952L686.132 455.797L590.168 485.648ZM689.546 433.775L603.808 479.956L684.869 454.736L689.546 433.775Z" fill="#059B9F"/>
<path d="M951.122 606.894L857.934 442.774L858.666 442.478L1047.79 363.779L951.122 606.894ZM860.054 443.413L950.904 603.353L1045.06 366.461L860.054 443.413Z" fill="#059B9F"/>
<path d="M1049.22 368.894L840.63 164.973L906.025 90.2979L1049.22 368.894ZM842.672 164.911L1043.62 361.424L905.697 92.9648L842.672 164.911Z" fill="#059B9F"/>
<path d="M858.277 444.162V443.133L840.817 163.023L842.376 164.474L1047.71 365.339L858.277 444.162ZM842.563 166.86L859.711 442.026L1045.14 364.886L842.563 166.86Z" fill="#059B9F"/>
<path d="M259.223 450.806L132.955 335.066L134 334.037L261.015 421.376L259.223 450.806ZM141.716 341.071L257.866 447.562L259.425 421.984L141.716 341.071Z" fill="#059B9F"/>
<path d="M720.598 381.122L558.477 370.314L560.036 369.222L844.06 162.337L720.598 381.122ZM562.468 369.191L719.663 379.671L839.305 167.562L562.468 369.191Z" fill="#059B9F"/>
<path d="M691.011 433.323L556.949 368.816L721.409 379.734L691.011 433.323ZM564.042 370.688L690.31 431.436L718.915 380.935L564.042 370.688Z" fill="#059B9F"/>
<path d="M596.482 483.87L559.21 368.349L692.227 432.293L596.482 483.87ZM561.735 371.14L597.417 481.734L689.109 432.402L561.735 371.14Z" fill="#059B9F"/>
<path d="M377.836 518.556L257.804 449.543L259.628 420.144L378.803 517.465L377.836 518.556ZM259.363 448.825L371.008 512.957L260.984 423.169L259.363 448.825Z" fill="#059B9F"/>
<path d="M375.685 519.087L560.878 368.458L597.947 483.324L597.105 483.465L375.685 519.087ZM560.005 371.031L380.736 516.872L595.858 482.264L560.005 371.031Z" fill="#059B9F"/>
<path d="M196.416 679.806L5.30011 512.926L259.534 448.108L196.416 679.806ZM8.37106 513.675L195.621 677.108L257.477 450.182L8.37106 513.675Z" fill="#059B9F"/>
<path d="M194.639 680.68L258.038 447.999L379.504 517.792L194.639 680.68ZM259.036 450.307L197.461 676.251L377.026 518.104L259.036 450.307Z" fill="#059B9F"/>
<path d="M206.206 232.427L172.535 121.693L294.796 96.739L206.206 232.427ZM174.468 122.66L206.736 228.84L291.647 98.7353L174.468 122.66Z" fill="#059B9F"/>
<path d="M261.561 423.435L132.503 334.754L206.767 228.871L261.561 423.435ZM134.607 334.427L258.942 419.925L206.159 232.396L134.607 334.427Z" fill="#059B9F"/>
<path d="M132.144 337.936L173.314 118.917L207.328 230.742L132.144 337.936ZM173.688 125.421L134.997 331.292L205.645 230.571L173.688 125.421Z" fill="#059B9F"/>
<path d="M259.753 422.748L205.286 229.245L417.993 334.551L259.753 422.748ZM207.671 232.021L260.672 420.565L414.844 334.629L207.671 232.021Z" fill="#059B9F"/>
<path d="M377.072 519.882L415.841 333.709L416.667 333.912L562.047 369.409L561.018 370.251L377.072 519.882ZM417.073 335.456L379.473 516.061L558.913 370.017L417.073 335.456Z" fill="#059B9F"/>
<path d="M378.803 519.336L258.973 421.485L417.54 333.101L378.803 519.336ZM261.561 421.766L377.758 516.622L415.358 336.017L261.561 421.766Z" fill="#059B9F"/>
<path d="M430.105 598.441L377.104 517.48L378.195 517.309L600.02 481.64L430.105 598.441ZM379.504 518.478L430.572 596.366L593.925 483.995L379.504 518.478Z" fill="#059B9F"/>
<path d="M192.846 680.384L378.429 516.856L431.43 597.754L430.588 598.051L192.846 680.384ZM378.101 519.102L199.269 676.625L429.201 597.084L378.101 519.102Z" fill="#059B9F"/>
<path d="M205.037 231.46L293.066 96.4583L395.311 214.413L393.924 214.538L205.037 231.46ZM293.315 98.8913L207.921 229.807L392.427 213.274L293.315 98.8913Z" fill="#059B9F"/>
<path d="M560.41 370.703L559.911 370.236L392.271 213.321L844.231 163.975L842.158 165.534L560.41 370.703ZM395.529 214.351L560.55 368.754L839.087 165.924L395.529 214.351Z" fill="#059B9F"/>
<path d="M562.966 371.078L415.763 335.206L392.708 211.715L562.966 371.078ZM417.135 334.037L557.978 368.348L395.077 215.879L417.135 334.037Z" fill="#059B9F"/>
<path d="M417.494 335.893L416.075 335.191L203.93 230.165L394.547 213.087L417.494 335.893ZM209.012 231.101L415.405 333.288L393.238 214.6L209.012 231.101Z" fill="#059B9F"/>
<path d="M394.937 216.175L292.208 97.6436L373.674 19.6621L394.937 216.175ZM294.25 97.7371L392.832 211.497L372.411 22.9373L294.25 97.7371Z" fill="#059B9F"/>
<path d="M173.579 129.211C177.78 129.211 181.186 125.803 181.186 121.6C181.186 117.396 177.78 113.989 173.579 113.989C169.378 113.989 165.972 117.396 165.972 121.6C165.972 125.803 169.378 129.211 173.579 129.211Z" fill="#059B9F"/>
<path d="M293.408 105.988C297.61 105.988 301.016 102.58 301.016 98.3766C301.016 94.1732 297.61 90.7656 293.408 90.7656C289.207 90.7656 285.801 94.1732 285.801 98.3766C285.801 102.58 289.207 105.988 293.408 105.988Z" fill="#059B9F"/>
<path d="M392.645 218.671C396.847 218.671 400.253 215.263 400.253 211.06C400.253 206.857 396.847 203.449 392.645 203.449C388.444 203.449 385.038 206.857 385.038 211.06C385.038 215.263 388.444 218.671 392.645 218.671Z" fill="#059B9F"/>
<path d="M840.989 174.596C845.19 174.596 848.596 171.188 848.596 166.985C848.596 162.781 845.19 159.374 840.989 159.374C836.788 159.374 833.382 162.781 833.382 166.985C833.382 171.188 836.788 174.596 840.989 174.596Z" fill="#059B9F"/>
<path d="M686.693 461.864C690.894 461.864 694.3 458.456 694.3 454.253C694.3 450.049 690.894 446.642 686.693 446.642C682.492 446.642 679.086 450.049 679.086 454.253C679.086 458.456 682.492 461.864 686.693 461.864Z" fill="#059B9F"/>
<path d="M561.339 375.893C565.296 374.479 567.357 370.124 565.944 366.165C564.53 362.207 560.177 360.144 556.221 361.559C552.264 362.973 550.203 367.328 551.616 371.286C553.03 375.245 557.383 377.307 561.339 375.893Z" fill="#059B9F"/>
<path d="M724.359 387.131C728.315 385.717 730.376 381.362 728.963 377.403C727.549 373.445 723.196 371.382 719.24 372.797C715.283 374.211 713.222 378.566 714.635 382.524C716.049 386.483 720.402 388.545 724.359 387.131Z" fill="#059B9F"/>
<path d="M596.482 491.481C600.683 491.481 604.089 488.074 604.089 483.87C604.089 479.667 600.683 476.259 596.482 476.259C592.281 476.259 588.875 479.667 588.875 483.87C588.875 488.074 592.281 491.481 596.482 491.481Z" fill="#059B9F"/>
<path d="M7.60723 521.099C11.8086 521.099 15.2145 517.691 15.2145 513.488C15.2145 509.284 11.8086 505.877 7.60723 505.877C3.40587 505.877 0 509.284 0 513.488C0 517.691 3.40587 521.099 7.60723 521.099Z" fill="#059B9F"/>
<path d="M195.855 685C200.056 685 203.462 681.592 203.462 677.389C203.462 673.186 200.056 669.778 195.855 669.778C191.654 669.778 188.248 673.186 188.248 677.389C188.248 681.592 191.654 685 195.855 685Z" fill="#059B9F"/>
<path d="M208.575 236.794C212.441 236.794 215.575 233.659 215.575 229.791C215.575 225.924 212.441 222.788 208.575 222.788C204.71 222.788 201.576 225.924 201.576 229.791C201.576 233.659 204.71 236.794 208.575 236.794Z" fill="#059B9F"/>
<path d="M208.575 241.348C206.291 241.348 204.057 240.67 202.158 239.4C200.258 238.13 198.778 236.325 197.903 234.214C197.029 232.102 196.8 229.778 197.246 227.536C197.692 225.295 198.792 223.235 200.407 221.619C202.023 220.003 204.081 218.902 206.322 218.456C208.563 218.01 210.885 218.239 212.996 219.114C215.106 219.989 216.911 221.47 218.18 223.37C219.449 225.271 220.127 227.505 220.127 229.791C220.122 232.855 218.904 235.792 216.739 237.958C214.573 240.125 211.638 241.344 208.575 241.348ZM208.575 219.981C206.636 219.981 204.74 220.556 203.128 221.634C201.515 222.712 200.259 224.244 199.517 226.037C198.774 227.829 198.58 229.802 198.959 231.705C199.337 233.608 200.271 235.356 201.642 236.728C203.013 238.1 204.76 239.034 206.662 239.413C208.564 239.791 210.536 239.597 212.328 238.854C214.119 238.112 215.651 236.854 216.728 235.241C217.806 233.628 218.381 231.731 218.381 229.791C218.376 227.19 217.342 224.698 215.504 222.859C213.666 221.02 211.175 219.985 208.575 219.981Z" fill="#059B9F"/>
<path d="M134.53 344.19C140.479 344.19 145.301 339.365 145.301 333.413C145.301 327.461 140.479 322.636 134.53 322.636C128.58 322.636 123.758 327.461 123.758 333.413C123.758 339.365 128.58 344.19 134.53 344.19Z" fill="#059B9F"/>
<path d="M134.53 351.177C131.018 351.177 127.585 350.135 124.665 348.183C121.745 346.231 119.47 343.457 118.126 340.211C116.782 336.965 116.43 333.393 117.115 329.947C117.8 326.501 119.491 323.336 121.975 320.852C124.458 318.367 127.621 316.675 131.066 315.99C134.51 315.305 138.08 315.656 141.324 317.001C144.569 318.345 147.342 320.622 149.293 323.544C151.244 326.465 152.285 329.899 152.285 333.413C152.281 338.123 150.409 342.639 147.08 345.969C143.751 349.3 139.237 351.173 134.53 351.177ZM134.53 318.331C131.55 318.34 128.64 319.233 126.168 320.896C123.695 322.558 121.77 324.917 120.636 327.674C119.502 330.43 119.211 333.461 119.798 336.384C120.384 339.306 121.824 341.989 123.934 344.094C126.044 346.198 128.73 347.63 131.653 348.208C134.575 348.786 137.604 348.485 140.356 347.342C143.107 346.199 145.459 344.266 147.113 341.787C148.768 339.308 149.65 336.394 149.65 333.413C149.648 331.429 149.256 329.465 148.494 327.633C147.733 325.801 146.619 324.137 145.214 322.737C143.81 321.336 142.143 320.226 140.31 319.47C138.477 318.714 136.512 318.327 134.53 318.331Z" fill="#059B9F"/>
<path d="M258.708 455.625C262.574 455.625 265.708 452.49 265.708 448.623C265.708 444.755 262.574 441.62 258.708 441.62C254.843 441.62 251.709 444.755 251.709 448.623C251.709 452.49 254.843 455.625 258.708 455.625Z" fill="#059B9F"/>
<path d="M258.771 460.18C256.486 460.18 254.253 459.502 252.353 458.232C250.454 456.962 248.973 455.157 248.099 453.045C247.224 450.934 246.996 448.61 247.441 446.368C247.887 444.126 248.987 442.067 250.603 440.451C252.218 438.834 254.276 437.734 256.517 437.288C258.758 436.842 261.08 437.071 263.191 437.946C265.302 438.82 267.106 440.302 268.375 442.202C269.644 444.103 270.322 446.337 270.322 448.623C270.318 451.686 269.099 454.624 266.934 456.79C264.769 458.956 261.833 460.175 258.771 460.18ZM258.771 438.813C256.831 438.813 254.936 439.388 253.323 440.466C251.711 441.544 250.454 443.076 249.712 444.868C248.97 446.661 248.775 448.634 249.154 450.536C249.532 452.439 250.466 454.187 251.837 455.559C253.209 456.931 254.956 457.866 256.858 458.244C258.76 458.623 260.731 458.428 262.523 457.686C264.315 456.943 265.846 455.686 266.923 454.073C268.001 452.46 268.576 450.563 268.576 448.623C268.572 446.022 267.537 443.529 265.699 441.69C263.861 439.852 261.37 438.817 258.771 438.813Z" fill="#059B9F"/>
<path d="M416.231 344.829C422.008 344.829 426.691 340.144 426.691 334.364C426.691 328.584 422.008 323.899 416.231 323.899C410.454 323.899 405.771 328.584 405.771 334.364C405.771 340.144 410.454 344.829 416.231 344.829Z" fill="#059B9F"/>
<path d="M416.215 351.598C412.805 351.598 409.472 350.586 406.637 348.691C403.802 346.796 401.592 344.102 400.287 340.95C398.982 337.798 398.64 334.329 399.306 330.983C399.971 327.637 401.613 324.564 404.024 322.151C406.435 319.739 409.507 318.096 412.852 317.431C416.196 316.765 419.663 317.107 422.813 318.412C425.964 319.718 428.656 321.929 430.551 324.765C432.445 327.602 433.456 330.937 433.456 334.349C433.452 338.922 431.634 343.307 428.402 346.541C425.17 349.775 420.787 351.594 416.215 351.598ZM416.215 319.704C413.32 319.704 410.49 320.563 408.083 322.172C405.676 323.781 403.8 326.068 402.692 328.744C401.584 331.42 401.294 334.365 401.859 337.206C402.424 340.047 403.818 342.656 405.865 344.704C407.912 346.752 410.52 348.147 413.36 348.712C416.199 349.277 419.142 348.987 421.817 347.879C424.492 346.77 426.778 344.893 428.386 342.485C429.995 340.077 430.853 337.245 430.853 334.349C430.845 330.469 429.299 326.75 426.556 324.008C423.812 321.266 420.094 319.723 416.215 319.719V319.704Z" fill="#059B9F"/>
<path d="M372.599 28.209C378.375 28.209 383.058 23.5236 383.058 17.7439C383.058 11.9642 378.375 7.27881 372.599 7.27881C366.822 7.27881 362.139 11.9642 362.139 17.7439C362.139 23.5236 366.822 28.209 372.599 28.209Z" fill="#059B9F"/>
<path d="M372.567 34.9778C369.157 34.9778 365.824 33.9661 362.989 32.0707C360.153 30.1753 357.944 27.4813 356.639 24.3294C355.334 21.1774 354.992 17.7091 355.658 14.3631C356.323 11.017 357.965 7.94342 360.376 5.53103C362.787 3.11865 365.859 1.47579 369.204 0.810211C372.548 0.144635 376.015 0.486236 379.165 1.79181C382.316 3.09738 385.008 5.30829 386.903 8.14496C388.797 10.9816 389.808 14.3166 389.808 17.7283C389.804 22.3018 387.986 26.6869 384.754 29.9209C381.522 33.155 377.139 34.9736 372.567 34.9778ZM372.567 3.08335C369.672 3.08335 366.842 3.94226 364.435 5.55146C362.028 7.16067 360.152 9.44789 359.044 12.1239C357.936 14.7999 357.646 17.7445 358.211 20.5853C358.776 23.4262 360.17 26.0357 362.217 28.0838C364.264 30.1319 366.872 31.5267 369.712 32.0918C372.551 32.6569 375.494 32.3668 378.169 31.2584C380.844 30.15 383.13 28.2729 384.738 25.8645C386.347 23.4562 387.205 20.6248 387.205 17.7283C387.197 13.8482 385.651 10.1296 382.908 7.38738C380.164 4.64519 376.446 3.10307 372.567 3.09895V3.08335Z" fill="#059B9F"/>
<path d="M690.497 439.156C694.362 439.156 697.496 436.02 697.496 432.153C697.496 428.285 694.362 425.15 690.497 425.15C686.631 425.15 683.497 428.285 683.497 432.153C683.497 436.02 686.631 439.156 690.497 439.156Z" fill="#059B9F"/>
<path d="M690.497 443.694C688.212 443.694 685.979 443.016 684.079 441.746C682.18 440.477 680.699 438.672 679.825 436.56C678.951 434.448 678.722 432.124 679.167 429.883C679.613 427.641 680.713 425.582 682.329 423.965C683.944 422.349 686.002 421.248 688.243 420.803C690.484 420.357 692.806 420.585 694.917 421.46C697.028 422.335 698.832 423.816 700.101 425.717C701.37 427.617 702.048 429.852 702.048 432.137C702.044 435.201 700.825 438.138 698.66 440.305C696.495 442.471 693.559 443.69 690.497 443.694ZM690.497 422.327C688.557 422.327 686.662 422.903 685.049 423.981C683.437 425.058 682.18 426.591 681.438 428.383C680.696 430.176 680.501 432.148 680.88 434.051C681.258 435.954 682.192 437.702 683.563 439.074C684.935 440.446 686.682 441.38 688.584 441.759C690.486 442.137 692.457 441.943 694.249 441.201C696.041 440.458 697.572 439.201 698.649 437.587C699.727 435.974 700.302 434.078 700.302 432.137C700.298 429.537 699.263 427.044 697.425 425.205C695.587 423.366 693.096 422.331 690.497 422.327Z" fill="#059B9F"/>
<path d="M907.007 100.888C912.224 100.888 916.453 96.6563 916.453 91.4365C916.453 86.2166 912.224 81.9851 907.007 81.9851C901.789 81.9851 897.56 86.2166 897.56 91.4365C897.56 96.6563 901.789 100.888 907.007 100.888Z" fill="#059B9F"/>
<path d="M907.007 107.033C903.924 107.033 900.91 106.118 898.346 104.404C895.783 102.69 893.784 100.255 892.605 97.4048C891.425 94.555 891.116 91.4191 891.718 88.3937C892.319 85.3683 893.804 82.5893 895.984 80.4081C898.164 78.227 900.942 76.7416 903.965 76.1398C906.989 75.538 910.124 75.8468 912.972 77.0273C915.821 78.2077 918.255 80.2068 919.968 82.7716C921.681 85.3363 922.595 88.3517 922.595 91.4364C922.595 95.5728 920.953 99.5398 918.029 102.465C915.106 105.39 911.141 107.033 907.007 107.033ZM907.007 78.2107C904.389 78.2107 901.83 78.9873 899.654 80.4423C897.477 81.8973 895.781 83.9653 894.779 86.3848C893.778 88.8043 893.516 91.4667 894.026 94.0352C894.537 96.6038 895.797 98.9631 897.648 100.815C899.499 102.667 901.857 103.928 904.425 104.439C906.992 104.95 909.653 104.688 912.071 103.685C914.49 102.683 916.557 100.986 918.011 98.8084C919.465 96.6309 920.241 94.0709 920.241 91.452C920.241 87.9388 918.847 84.5692 916.366 82.0835C913.884 79.5978 910.518 78.1993 907.007 78.1951V78.2107Z" fill="#059B9F"/>
<path d="M858.308 450.229C862.173 450.229 865.307 447.094 865.307 443.226C865.307 439.359 862.173 436.224 858.308 436.224C854.442 436.224 851.309 439.359 851.309 443.226C851.309 447.094 854.442 450.229 858.308 450.229Z" fill="#059B9F"/>
<path d="M858.308 454.783C856.023 454.783 853.79 454.105 851.89 452.835C849.991 451.566 848.51 449.761 847.636 447.649C846.762 445.537 846.533 443.213 846.979 440.972C847.424 438.73 848.524 436.671 850.14 435.054C851.755 433.438 853.814 432.337 856.054 431.892C858.295 431.446 860.618 431.674 862.728 432.549C864.839 433.424 866.643 434.905 867.912 436.806C869.181 438.706 869.859 440.941 869.859 443.226C869.855 446.29 868.636 449.227 866.471 451.394C864.306 453.56 861.37 454.779 858.308 454.783ZM858.308 433.416C856.368 433.416 854.473 433.992 852.86 435.069C851.248 436.147 849.991 437.68 849.249 439.472C848.507 441.265 848.313 443.237 848.691 445.14C849.069 447.043 850.003 448.791 851.374 450.163C852.746 451.535 854.493 452.469 856.395 452.848C858.297 453.226 860.268 453.032 862.06 452.29C863.852 451.547 865.383 450.29 866.461 448.676C867.538 447.063 868.113 445.167 868.113 443.226C868.109 440.626 867.075 438.133 865.237 436.294C863.399 434.455 860.907 433.42 858.308 433.416Z" fill="#059B9F"/>
<path d="M1045.46 371.904C1049.33 371.904 1052.46 368.769 1052.46 364.902C1052.46 361.034 1049.33 357.899 1045.46 357.899C1041.6 357.899 1038.47 361.034 1038.47 364.902C1038.47 368.769 1041.6 371.904 1045.46 371.904Z" fill="#059B9F"/>
<path d="M1045.46 376.459C1043.18 376.459 1040.95 375.781 1039.05 374.511C1037.15 373.241 1035.67 371.436 1034.79 369.324C1033.92 367.213 1033.69 364.889 1034.14 362.647C1034.58 360.405 1035.68 358.346 1037.3 356.73C1038.91 355.114 1040.97 354.013 1043.21 353.567C1045.45 353.121 1047.77 353.35 1049.88 354.225C1052 355.099 1053.8 356.581 1055.07 358.481C1056.34 360.382 1057.02 362.616 1057.02 364.902C1057.01 367.965 1055.79 370.903 1053.63 373.069C1051.46 375.235 1048.53 376.454 1045.46 376.459ZM1045.46 355.092C1043.53 355.092 1041.63 355.667 1040.02 356.745C1038.4 357.823 1037.15 359.355 1036.41 361.148C1035.66 362.94 1035.47 364.913 1035.85 366.816C1036.23 368.719 1037.16 370.466 1038.53 371.838C1039.9 373.21 1041.65 374.145 1043.55 374.523C1045.45 374.902 1047.43 374.707 1049.22 373.965C1051.01 373.222 1052.54 371.965 1053.62 370.352C1054.69 368.739 1055.27 366.842 1055.27 364.902C1055.27 362.301 1054.23 359.808 1052.39 357.969C1050.56 356.131 1048.06 355.096 1045.46 355.092Z" fill="#059B9F"/>
<path d="M952.556 617.749C959.143 617.749 964.482 612.407 964.482 605.818C964.482 599.228 959.143 593.886 952.556 593.886C945.97 593.886 940.631 599.228 940.631 605.818C940.631 612.407 945.97 617.749 952.556 617.749Z" fill="#059B9F"/>
<path d="M952.556 625.484C948.667 625.488 944.865 624.336 941.63 622.176C938.395 620.017 935.873 616.945 934.383 613.351C932.893 609.757 932.503 605.801 933.261 601.985C934.019 598.168 935.891 594.662 938.641 591.911C941.391 589.16 944.895 587.286 948.71 586.528C952.524 585.769 956.478 586.16 960.071 587.651C963.663 589.141 966.733 591.664 968.892 594.901C971.051 598.138 972.201 601.942 972.198 605.833C972.19 611.043 970.118 616.036 966.436 619.72C962.754 623.403 957.763 625.476 952.556 625.484ZM952.556 589.13C949.254 589.13 946.027 590.109 943.281 591.945C940.535 593.78 938.396 596.389 937.132 599.441C935.868 602.493 935.538 605.852 936.182 609.092C936.826 612.332 938.416 615.308 940.751 617.644C943.086 619.98 946.061 621.571 949.299 622.216C952.538 622.86 955.895 622.53 958.946 621.265C961.996 620.001 964.604 617.86 966.438 615.113C968.273 612.366 969.252 609.137 969.252 605.833C969.252 601.402 967.493 597.151 964.363 594.016C961.232 590.881 956.986 589.118 952.556 589.114V589.13Z" fill="#059B9F"/>
<path d="M378.803 527.696C384.451 527.696 389.029 523.115 389.029 517.465C389.029 511.814 384.451 507.234 378.803 507.234C373.155 507.234 368.577 511.814 368.577 517.465C368.577 523.115 373.155 527.696 378.803 527.696Z" fill="#059B9F"/>
<path d="M378.803 534.34C375.467 534.34 372.206 533.35 369.432 531.496C366.658 529.642 364.496 527.006 363.22 523.923C361.943 520.839 361.609 517.446 362.26 514.172C362.911 510.899 364.517 507.892 366.876 505.532C369.235 503.172 372.24 501.565 375.512 500.914C378.784 500.263 382.175 500.597 385.257 501.874C388.339 503.151 390.974 505.314 392.827 508.089C394.68 510.864 395.67 514.127 395.67 517.465C395.665 521.939 393.887 526.229 390.725 529.393C387.563 532.556 383.275 534.336 378.803 534.34ZM378.803 503.147C375.969 503.147 373.2 503.988 370.844 505.563C368.488 507.138 366.652 509.376 365.567 511.995C364.483 514.614 364.199 517.496 364.752 520.276C365.305 523.057 366.669 525.611 368.673 527.615C370.676 529.62 373.229 530.985 376.008 531.538C378.787 532.091 381.667 531.807 384.285 530.722C386.903 529.637 389.14 527.8 390.714 525.443C392.288 523.086 393.129 520.315 393.129 517.48C393.129 513.677 391.62 510.03 388.934 507.34C386.247 504.649 382.604 503.136 378.803 503.132V503.147Z" fill="#059B9F"/>
<path d="M431.336 604.586C435.202 604.586 438.336 601.45 438.336 597.583C438.336 593.715 435.202 590.58 431.336 590.58C427.471 590.58 424.337 593.715 424.337 597.583C424.337 601.45 427.471 604.586 431.336 604.586Z" fill="#059B9F"/>
<path d="M431.336 609.14C429.052 609.14 426.818 608.462 424.919 607.192C423.019 605.922 421.539 604.117 420.664 602.005C419.79 599.894 419.561 597.57 420.007 595.328C420.453 593.086 421.553 591.027 423.168 589.411C424.784 587.795 426.842 586.694 429.083 586.248C431.324 585.802 433.646 586.031 435.757 586.906C437.867 587.78 439.671 589.262 440.941 591.162C442.21 593.063 442.887 595.297 442.887 597.583C442.883 600.647 441.665 603.584 439.5 605.75C437.334 607.917 434.399 609.135 431.336 609.14ZM431.336 587.773C429.397 587.773 427.501 588.348 425.889 589.426C424.276 590.504 423.02 592.036 422.277 593.829C421.535 595.621 421.341 597.594 421.72 599.497C422.098 601.4 423.032 603.148 424.403 604.519C425.774 605.891 427.521 606.826 429.423 607.204C431.325 607.583 433.297 607.389 435.089 606.646C436.88 605.904 438.412 604.646 439.489 603.033C440.566 601.42 441.142 599.523 441.142 597.583C441.137 594.982 440.103 592.489 438.265 590.65C436.427 588.812 433.936 587.777 431.336 587.773Z" fill="#059B9F"/>
</svg>
